<!-- Generated by IcoMoon.io -->
<svg version="1.1" xmlns="http://www.w3.org/2000/svg" width="32" height="32" viewBox="0 0 32 32">
<title>apachespark</title>
<path fill="#e25a1c" d="M14.416 0c-0.567 0.017-1.127 0.287-1.595 0.807-0.248 0.28-0.466 0.596-0.645 0.936l-0.013 0.026c-0.473 0.889-0.567 1.887-0.741 2.857 0.362-2.708 0.024-0.86-0.307 0.99l-0.661 4.459c-0.036 0.213-0.128 0.303-0.325 0.364-2.356 0.741-4.716 1.48-7.063 2.245-0.516 0.167-1.031 0.385-1.485 0.675-1.389 0.887-1.595 2.337-0.553 3.613 0.461 0.563 1.053 0.953 1.712 1.248 1.467 0.653 2.936 1.301 4.4 1.96 0.025 0.013 0.048 0.017 0.071 0.025h-0.005l1.741 0.713c0 0.031 0.003 0.060 0 0.097-0.267 2.707-0.52 5.417-0.773 8.127-0.053 0.559-0.016 1.108 0.179 1.64 0.423 1.16 1.42 1.531 2.508 0.935 0.496-0.272 0.888-0.663 1.249-1.091 1.829-2.164 3.661-4.325 5.484-6.496 0.148-0.177 0.273-0.2 0.484-0.131 0.465 0.156 0.929 0.308 1.393 0.463h0.001c0.027 0.016 0.060 0.027 0.097 0.040l0.189 0.056c1.664 0.555 3.573 1.033 5.239 1.587 0.533 0.176 0.829 0.219 1.393 0.131 0.415-0.064 0.789-0.083 1.104-0.315 0.803-0.44 1.327-1.276 1.317-2.243-0.007-0.569-0.205-1.084-0.467-1.581-1.093-2.075-2.183-4.151-3.281-6.221-0.104-0.197-0.101-0.324 0.049-0.5 1.841-2.153 3.675-4.315 5.511-6.473 0.363-0.427 0.684-0.877 0.871-1.411 0.411-1.171-0.12-2.093-1.333-2.321-0.187-0.033-0.402-0.052-0.622-0.052-0.365 0-0.718 0.053-1.051 0.151l0.026-0.007c-2.632 0.695-5.263 1.388-7.891 2.093-0.233 0.063-0.347 0.020-0.473-0.192-2.242-3.88-3.31-5.628-4.389-7.369l1.161 2.012c-0.258-0.428-0.546-0.799-0.871-1.133l0.001 0.001c-0.495-0.493-1.069-0.732-1.637-0.716zM14.645 4.937c0.105 0.072 0.19 0.167 0.25 0.277l0.002 0.004c1.16 1.928 2.323 3.853 3.479 5.784 0.093 0.157 0.18 0.213 0.369 0.161 2.033-0.547 4.069-1.084 6.105-1.623 0.489-0.131 0.98-0.257 1.471-0.385-0.019 0.104-0.067 0.195-0.134 0.267l0-0c-1.679 1.973-3.355 3.949-5.039 5.917-0.147 0.173-0.16 0.293-0.053 0.493 1.249 2.404 2.357 4.412 3.331 6.347l-4.928-1.359c-0.717-0.24-1.436-0.477-2.153-0.719-0.217-0.073-0.333-0.040-0.48 0.133-1.664 1.984-3.339 3.96-5.012 5.939-0.061 0.079-0.142 0.14-0.236 0.175l-0.004 0.001c0.047-0.504 0.091-1.009 0.139-1.515 0.199-2.096 0.396-4.192 0.601-6.288-0.040-0.424 0.156-0.54-0.429-0.727-1.991-0.791-4.461-1.761-6.421-2.54 0.088-0.081 0.196-0.143 0.314-0.177l0.006-0.001c2.396-0.76 4.793-1.52 7.192-2.273 0.169-0.053 0.265-0.123 0.281-0.311 0.017-0.197 0.067-0.392 0.101-0.588 0.321-1.817 0.644-3.635 0.968-5.451 0.091-0.515 0.187-1.028 0.28-1.543z"></path>
</svg>
