<!-- Generated by IcoMoon.io -->
<svg version="1.1" xmlns="http://www.w3.org/2000/svg" width="32" height="32" viewBox="0 0 32 32">
<title>mathworks</title>
<path fill="#0076a8" d="M5.764 21.664c-1.591-1.192-3.577-2.584-5.764-4.173l7.752-2.981 3.18 2.385c-2.385 2.783-3.975 3.776-5.168 4.769zM27.031 13.317c-0.596-1.591-0.993-3.18-1.591-4.771-0.596-1.789-1.192-3.379-2.187-4.771-0.397-0.596-1.192-1.988-2.187-1.988-0.199 0-0.397 0.199-0.596 0.199-0.596 0.199-1.391 1.391-1.591 2.187-0.596 0.993-1.789 2.584-2.584 3.577-0.199 0.397-0.596 0.795-0.795 0.993-0.596 0.397-1.192 0.993-1.988 1.391-0.199 0-0.397 0.199-0.596 0.199-0.596 0-0.993 0.397-1.391 0.596-0.596 0.596-1.192 1.391-1.789 1.988 0 0.199-0.199 0.397-0.397 0.596l2.981 2.187c2.187-2.584 4.771-5.168 6.559-10.136 0 0-0.596 5.367-5.367 11.131-2.981 3.379-5.367 5.168-5.764 5.565 0 0 0.795-0.199 1.591 0.199 1.591 0.596 2.385 2.783 2.981 4.372 0.397 1.192 0.993 2.187 1.391 3.379 1.591-0.397 2.584-0.993 3.577-1.988s1.988-2.187 2.981-3.18c1.789-2.187 3.975-4.969 6.757-3.577 0.397 0.199 0.993 0.596 1.192 0.795 0.596 0.397 0.993 0.795 1.591 1.391 0.993 0.795 1.391 1.391 2.187 1.789-1.988-3.975-3.379-7.951-4.967-12.121z"></path>
</svg>
