<!-- Generated by IcoMoon.io -->
<svg version="1.1" xmlns="http://www.w3.org/2000/svg" width="32" height="32" viewBox="0 0 32 32">
<title>tableau</title>
<path fill="#e97627" d="M15.539 0.232v2.937h-2.629v0.773h2.629v2.937h0.928v-2.937h2.627v-0.773h-2.627v-2.937h-0.464zM23.579 3.248l-0.003 2.164v2.164h-3.943v1.236h3.943v4.251h1.391l0.015-2.109 0.027-2.101 1.953-0.027 1.947-0.013v-1.236h-3.937v-4.328h-0.696zM7.036 3.328v4.253h-3.981v1.233h3.981v4.253h1.313v-4.255h4.017v-1.233h-4.017v-4.252h-0.656zM15.151 10.355v4.791h-4.404v1.584h4.405v4.795h1.707v-4.795h4.412v-1.584h-4.413v-4.791h-0.849zM28.112 12.421v2.961h-2.683v1.081h2.683v3.015h1.183v-3.015h2.705v-1.081h-2.705v-2.96h-0.563zM2.631 12.596v2.899h-2.631v0.828h2.631v2.925h0.889v-2.925h2.667v-0.827h-2.708v-2.901h-0.424zM23.576 18.617v4.339h-4.021v1.236h4.021v4.289h1.429v-4.288h3.981v-1.237h-3.981v-4.339h-0.711zM6.959 18.628v4.328h-3.943v1.237h3.943v4.252h1.468v-4.252h3.94v-1.237h-3.94v-4.329h-0.733zM15.38 24.732l0.003 1.471v1.467h-2.628v1.083h2.628v3.016h1.237l0.016-1.492 0.023-1.524h2.625v-1.083h-2.667v-2.937h-0.62z"></path>
</svg>
