<!-- Generated by IcoMoon.io -->
<svg version="1.1" xmlns="http://www.w3.org/2000/svg" width="32" height="32" viewBox="0 0 32 32">
<title>wolframmathematica</title>
<path fill="#d10" d="M20.987 14.267c-0.707-2.040 0.187-5.333 0.187-5.333s-3.040 1.747-5.267 1.733-5.067-1.733-5.067-1.733 0.747 3.28 0.093 5.387c-0.64 2.107-3.293 4.453-3.293 4.453s3.44 0.307 5.133 1.467 3.227 4.613 3.227 4.613 1.040-3.133 3.093-4.547c2.053-1.427 5.28-1.533 5.28-1.533s-2.667-2.453-3.387-4.507zM18.32 19.187c-1.453 1.080-2.333 2.92-2.333 2.92s-1.013-1.907-2.4-2.96c-1.4-1.053-3.427-1.293-3.427-1.293 0.945-0.823 1.654-1.894 2.027-3.112l0.013-0.048c0.613-2.053 0.24-3.64 0.24-3.64s1.227 0.933 3.493 0.933 3.72-0.933 3.72-0.933-0.507 2.107 0.093 3.6c0.587 1.52 2.093 3.213 2.093 3.213s-2.080 0.227-3.52 1.32zM18.307 12.8c0 0-1.267 0.507-2.36 0.493-1.093 0-2.267-0.493-2.267-0.493 0.067 0.773 0 1.533-0.227 2.267-0.36 1.147-1.213 2.187-1.213 2.187 1.613 0.331 2.949 1.313 3.746 2.654l0.014 0.026c0 0 0.6-1.133 1.573-1.773 0.667-0.413 1.4-0.733 2.173-0.933 0 0-0.987-1.040-1.36-2.093-0.373-1.040-0.080-2.333-0.080-2.333zM26.8 16l4.413-4.933-6.467-1.427 0.667-6.587-6.080 2.667-3.333-5.72-3.333 5.72-6.067-2.667 0.653 6.6-6.467 1.4 4.4 4.947-4.387 4.933 6.467 1.427-0.667 6.587 6.067-2.667 3.333 5.72 3.333-5.72 6.080 2.667-0.667-6.587 6.467-1.413zM19.773 21.267c-1.107 0.813-3.773 6.48-3.773 6.48s-2-5.147-4-6.48c-1.973-1.333-7.173-1.627-7.173-1.627s3.987-3.16 4.76-5.96c0.787-2.8-0.493-7.16-0.493-7.16s3.867 2.8 6.773 2.8c2.893 0 7.013-2.8 7.013-2.8s-1.093 6-0.707 7.28c0.4 1.28 4.973 5.84 4.973 5.84s-6.267 0.827-7.373 1.627z"></path>
</svg>
